<mxfile host="app.diagrams.net" modified="2021-05-11T10:41:54.558Z" agent="5.0 (X11; Linux x86_64) AppleWebKit/537.36 (KHTML, like Gecko) Chrome/90.0.4430.93 Safari/537.36" etag="neSruzqlhROfNY0ohVrZ" version="14.6.11" type="github">
  <diagram id="4dlnrqKyph9Nnh0UXESW" name="Page-1">
    <mxGraphModel dx="1350" dy="810" grid="1" gridSize="10" guides="1" tooltips="1" connect="1" arrows="1" fold="1" page="1" pageScale="1" pageWidth="827" pageHeight="1169" math="0" shadow="0">
      <root>
        <mxCell id="0" />
        <mxCell id="1" parent="0" />
        <mxCell id="loAqNdU8JJQzgeKkbSfA-40" value="" style="whiteSpace=wrap;html=1;aspect=fixed;fontSize=21;strokeWidth=2;align=left;" vertex="1" parent="1">
          <mxGeometry x="30" y="110" width="400" height="400" as="geometry" />
        </mxCell>
        <mxCell id="loAqNdU8JJQzgeKkbSfA-1" value="" style="rounded=0;whiteSpace=wrap;html=1;fillColor=#d5e8d4;strokeColor=#82b366;strokeWidth=2;" vertex="1" parent="1">
          <mxGeometry x="280" y="260" width="100" height="50" as="geometry" />
        </mxCell>
        <mxCell id="loAqNdU8JJQzgeKkbSfA-2" value="begin_tx&lt;br style=&quot;font-size: 21px&quot;&gt;&amp;nbsp;&lt;br&gt;&lt;br&gt;&lt;br&gt;&lt;br&gt;&lt;br&gt;&lt;br style=&quot;font-size: 21px&quot;&gt;&lt;div&gt;&lt;span&gt;end_tx&lt;/span&gt;&lt;/div&gt;" style="text;html=1;fillColor=#f8cecc;align=left;verticalAlign=top;whiteSpace=wrap;rounded=0;fontSize=21;strokeWidth=2;strokeColor=#b85450;" vertex="1" parent="1">
          <mxGeometry x="100" y="240" width="110" height="210" as="geometry" />
        </mxCell>
        <mxCell id="loAqNdU8JJQzgeKkbSfA-13" value="&amp;amp;a" style="text;html=1;strokeColor=none;fillColor=none;align=center;verticalAlign=middle;whiteSpace=wrap;rounded=0;fontSize=21;" vertex="1" parent="1">
          <mxGeometry x="298" y="192" width="40" height="20" as="geometry" />
        </mxCell>
        <mxCell id="loAqNdU8JJQzgeKkbSfA-15" value="" style="endArrow=classic;html=1;fontSize=21;strokeWidth=2;dashed=1;" edge="1" parent="1" target="loAqNdU8JJQzgeKkbSfA-25">
          <mxGeometry width="50" height="50" relative="1" as="geometry">
            <mxPoint x="60" y="150" as="sourcePoint" />
            <mxPoint x="60" y="480" as="targetPoint" />
          </mxGeometry>
        </mxCell>
        <mxCell id="loAqNdU8JJQzgeKkbSfA-17" value="&amp;amp;a, 0" style="text;html=1;strokeColor=none;fillColor=none;align=center;verticalAlign=middle;whiteSpace=wrap;rounded=0;fontSize=21;" vertex="1" parent="1">
          <mxGeometry x="280" y="275" width="110" height="20" as="geometry" />
        </mxCell>
        <mxCell id="loAqNdU8JJQzgeKkbSfA-21" value="1" style="rounded=0;whiteSpace=wrap;html=1;fontSize=21;fillColor=#dae8fc;strokeColor=#6c8ebf;strokeWidth=2;" vertex="1" parent="1">
          <mxGeometry x="280" y="360" width="100" height="40" as="geometry" />
        </mxCell>
        <mxCell id="loAqNdU8JJQzgeKkbSfA-22" value="&amp;amp;a" style="text;html=1;strokeColor=none;fillColor=none;align=center;verticalAlign=middle;whiteSpace=wrap;rounded=0;fontSize=21;" vertex="1" parent="1">
          <mxGeometry x="310" y="400" width="40" height="20" as="geometry" />
        </mxCell>
        <mxCell id="loAqNdU8JJQzgeKkbSfA-23" value="0" style="rounded=0;whiteSpace=wrap;html=1;fontSize=21;strokeWidth=2;fillColor=#dae8fc;strokeColor=#6c8ebf;" vertex="1" parent="1">
          <mxGeometry x="280" y="152" width="100" height="40" as="geometry" />
        </mxCell>
        <mxCell id="loAqNdU8JJQzgeKkbSfA-24" value="undo log" style="text;html=1;strokeColor=none;fillColor=none;align=center;verticalAlign=middle;whiteSpace=wrap;rounded=0;fontSize=21;" vertex="1" parent="1">
          <mxGeometry x="280" y="230" width="100" height="20" as="geometry" />
        </mxCell>
        <mxCell id="loAqNdU8JJQzgeKkbSfA-25" value="Time" style="text;html=1;strokeColor=none;fillColor=none;align=center;verticalAlign=middle;whiteSpace=wrap;rounded=0;fontSize=21;" vertex="1" parent="1">
          <mxGeometry x="40" y="470" width="40" height="20" as="geometry" />
        </mxCell>
        <mxCell id="loAqNdU8JJQzgeKkbSfA-28" style="edgeStyle=orthogonalEdgeStyle;rounded=0;orthogonalLoop=1;jettySize=auto;html=1;entryX=0;entryY=0.5;entryDx=0;entryDy=0;fontSize=21;" edge="1" parent="1" source="loAqNdU8JJQzgeKkbSfA-27" target="loAqNdU8JJQzgeKkbSfA-17">
          <mxGeometry relative="1" as="geometry" />
        </mxCell>
        <mxCell id="loAqNdU8JJQzgeKkbSfA-27" value="a = 1" style="text;html=1;strokeColor=none;fillColor=none;align=center;verticalAlign=middle;whiteSpace=wrap;rounded=0;fontSize=21;" vertex="1" parent="1">
          <mxGeometry x="118" y="275" width="50" height="20" as="geometry" />
        </mxCell>
      </root>
    </mxGraphModel>
  </diagram>
</mxfile>
